<!DOCTYPE svg PUBLIC "-//W3C//DTD SVG 20010904//EN" "http://www.w3.org/TR/2001/REC-SVG-20010904/DTD/svg10.dtd">
<svg version="1.0" xmlns="http://www.w3.org/2000/svg" width="533px" height="220px" viewBox="0 0 5330 2200" preserveAspectRatio="xMidYMid meet">
<g id="layer101" fill="#000000" stroke="none">
 <path d="M3099 2172 c-217 -57 -379 -271 -379 -500 0 -166 82 -414 189 -572 41 -61 134 -153 176 -176 19 -10 35 -21 35 -24 0 -4 -15 -13 -33 -22 -35 -17 -67 -68 -67 -106 0 -29 15 -66 35 -86 17 -16 16 -18 -4 -40 -11 -12 -23 -36 -27 -53 -7 -38 11 -99 34 -112 15 -9 15 -12 -6 -34 -52 -55 -34 -146 38 -186 l40 -22 0 -98 c0 -62 4 -101 12 -109 16 -16 180 -16 196 0 7 7 12 35 12 64 0 48 2 53 29 64 75 31 103 116 59 180 l-24 35 23 34 c13 19 23 48 23 66 0 18 -10 47 -23 66 l-23 34 24 35 c40 59 17 143 -48 171 -28 13 -30 17 -30 70 0 50 3 57 25 67 14 7 49 33 77 59 180 169 320 538 288 764 -45 315 -341 512 -651 431z m316 -121 c161 -80 260 -254 240 -425 -29 -264 -187 -556 -341 -632 l-54 -26 0 -60 c0 -51 -2 -59 -16 -54 -9 3 -20 6 -25 6 -5 0 -9 26 -9 58 l0 57 -44 18 c-160 66 -346 428 -346 675 0 181 111 340 282 402 41 15 74 19 149 17 86 -2 103 -6 164 -36z m-166 -1311 c104 -52 120 -65 103 -82 -17 -17 -232 90 -232 114 0 28 22 22 129 -32z m0 -200 c106 -53 114 -59 102 -78 -11 -18 -225 86 -229 111 -5 27 21 21 127 -33z m5 -201 c58 -28 106 -54 106 -58 0 -4 -5 -12 -11 -18 -16 -16 -229 85 -229 109 0 27 17 23 134 -33z m-6 -192 c2 -28 -1 -37 -12 -37 -12 0 -16 11 -16 41 0 52 24 48 28 -4z"/>
 <path d="M3139 1986 c-99 -26 -198 -111 -242 -206 -18 -37 -21 -65 -21 -160 0 -101 3 -124 28 -190 88 -234 201 -353 337 -353 43 0 67 6 102 26 113 67 213 236 252 428 21 103 15 172 -24 254 -78 165 -257 249 -432 201z m195 -107 c112 -42 186 -165 171 -286 -20 -162 -129 -364 -220 -407 -49 -23 -88 -13 -142 37 -58 53 -108 139 -145 251 -51 151 -33 262 58 352 71 72 176 92 278 53z"/>
 <path d="M24 1828 c3 -194 9 -480 13 -635 l6 -283 93 0 c80 0 93 2 98 18 2 9 51 232 107 496 57 263 104 474 106 470 1 -5 48 -218 103 -474 56 -256 104 -475 107 -487 5 -22 10 -23 98 -23 l92 0 6 303 c4 166 10 452 13 635 l7 332 -82 0 -81 0 0 -273 c0 -151 -3 -336 -7 -412 l-6 -139 -97 410 -96 409 -59 0 -60 0 -95 -409 -95 -408 -6 143 c-4 79 -7 264 -8 412 l-1 267 -81 0 -82 0 7 -352z"/>
 <path d="M980 2178 c0 -2 60 -286 134 -633 l133 -630 94 -3 94 -3 133 628 c73 345 132 631 132 636 0 4 -40 7 -90 7 l-89 0 -6 -32 c-3 -18 -16 -89 -28 -158 l-22 -125 -121 -3 -122 -3 -26 143 c-15 79 -29 151 -32 161 -5 14 -18 17 -95 17 -49 0 -89 -1 -89 -2z m456 -465 c-2 -10 -24 -122 -47 -250 -24 -128 -45 -231 -47 -228 -5 4 -92 462 -92 483 0 9 26 12 96 12 86 0 95 -2 90 -17z"/>
 <path d="M1820 1545 l0 -635 250 0 250 0 0 65 0 65 -155 0 -155 0 0 210 0 210 120 0 120 0 0 65 0 65 -120 0 -120 0 0 295 0 295 -95 0 -95 0 0 -635z"/>
 <path d="M2430 1545 l0 -635 95 0 95 0 0 635 0 635 -95 0 -95 0 0 -635z"/>
 <path d="M4073 2144 c-64 -23 -126 -84 -157 -154 -29 -64 -53 -168 -44 -192 5 -12 155 -56 162 -47 1 2 10 40 19 83 21 102 52 149 111 171 40 15 50 16 88 4 65 -21 91 -66 86 -150 -5 -98 -35 -138 -231 -313 -148 -132 -171 -156 -199 -214 -31 -62 -33 -74 -33 -167 1 -118 22 -174 87 -230 56 -47 115 -65 219 -65 145 0 217 38 269 143 29 59 60 181 48 192 -3 3 -38 15 -78 26 -80 22 -89 18 -90 -31 -1 -82 -49 -163 -109 -181 -110 -33 -193 46 -174 164 9 58 37 91 196 232 150 133 214 205 250 285 30 66 31 236 1 300 -25 55 -72 103 -128 132 -54 29 -228 36 -293 12z"/>
 <path d="M4811 2139 c-64 -25 -125 -84 -151 -144 -37 -86 -42 -147 -38 -520 3 -345 4 -362 25 -415 30 -74 75 -125 137 -157 44 -24 66 -28 163 -31 89 -3 124 0 170 14 76 24 141 87 174 170 24 59 24 61 24 449 0 349 -2 396 -18 445 -26 79 -74 140 -138 175 -50 28 -62 30 -174 32 -103 3 -128 0 -174 -18z m249 -148 c14 -10 34 -33 45 -52 19 -32 20 -52 20 -424 0 -362 -1 -393 -19 -428 -24 -49 -66 -71 -136 -71 -70 0 -112 22 -136 71 -18 35 -19 66 -19 428 0 420 0 420 54 469 42 38 142 42 191 7z"/>
 </g>
<g id="layer102" fill="#c10000" stroke="none">
 <path d="M24 1828 c3 -194 9 -480 13 -635 l6 -283 93 0 c80 0 93 2 98 18 2 9 51 232 107 496 57 263 104 474 106 470 1 -5 48 -218 103 -474 56 -256 104 -475 107 -487 5 -22 10 -23 98 -23 l92 0 6 303 c4 166 10 452 13 635 l7 332 -82 0 -81 0 0 -273 c0 -151 -3 -336 -7 -412 l-6 -139 -97 410 -96 409 -59 0 -60 0 -95 -409 -95 -408 -6 143 c-4 79 -7 264 -8 412 l-1 267 -81 0 -82 0 7 -352z"/>
 <path d="M980 2178 c0 -2 60 -286 134 -633 l133 -630 94 -3 94 -3 133 628 c73 345 132 631 132 636 0 4 -40 7 -90 7 l-89 0 -6 -32 c-3 -18 -16 -89 -28 -158 l-22 -125 -121 -3 -122 -3 -26 143 c-15 79 -29 151 -32 161 -5 14 -18 17 -95 17 -49 0 -89 -1 -89 -2z m456 -465 c-2 -10 -24 -122 -47 -250 -24 -128 -45 -231 -47 -228 -5 4 -92 462 -92 483 0 9 26 12 96 12 86 0 95 -2 90 -17z"/>
 <path d="M1820 1545 l0 -635 250 0 250 0 0 65 0 65 -155 0 -155 0 0 210 0 210 120 0 120 0 0 65 0 65 -120 0 -120 0 0 295 0 295 -95 0 -95 0 0 -635z"/>
 <path d="M2430 1545 l0 -635 95 0 95 0 0 635 0 635 -95 0 -95 0 0 -635z"/>
 <path d="M4073 2144 c-64 -23 -126 -84 -157 -154 -29 -64 -53 -168 -44 -192 5 -12 155 -56 162 -47 1 2 10 40 19 83 21 102 52 149 111 171 40 15 50 16 88 4 65 -21 91 -66 86 -150 -5 -98 -35 -138 -231 -313 -148 -132 -171 -156 -199 -214 -31 -62 -33 -74 -33 -167 1 -118 22 -174 87 -230 56 -47 115 -65 219 -65 145 0 217 38 269 143 29 59 60 181 48 192 -3 3 -38 15 -78 26 -80 22 -89 18 -90 -31 -1 -82 -49 -163 -109 -181 -110 -33 -193 46 -174 164 9 58 37 91 196 232 150 133 214 205 250 285 30 66 31 236 1 300 -25 55 -72 103 -128 132 -54 29 -228 36 -293 12z"/>
 <path d="M4811 2139 c-64 -25 -125 -84 -151 -144 -37 -86 -42 -147 -38 -520 3 -345 4 -362 25 -415 30 -74 75 -125 137 -157 44 -24 66 -28 163 -31 89 -3 124 0 170 14 76 24 141 87 174 170 24 59 24 61 24 449 0 349 -2 396 -18 445 -26 79 -74 140 -138 175 -50 28 -62 30 -174 32 -103 3 -128 0 -174 -18z m249 -148 c14 -10 34 -33 45 -52 19 -32 20 -52 20 -424 0 -362 -1 -393 -19 -428 -24 -49 -66 -71 -136 -71 -70 0 -112 22 -136 71 -18 35 -19 66 -19 428 0 420 0 420 54 469 42 38 142 42 191 7z"/>
 </g>

</svg>