<?xml version="1.0" standalone="no"?>
<!DOCTYPE svg PUBLIC "-//W3C//DTD SVG 20010904//EN"
 "http://www.w3.org/TR/2001/REC-SVG-20010904/DTD/svg10.dtd">
<svg version="1.0" xmlns="http://www.w3.org/2000/svg"
 width="31.000000pt" height="64.000000pt" viewBox="0 0 31.000000 64.000000"
 preserveAspectRatio="xMidYMid meet">
<metadata>
Created by potrace 1.10, written by Peter Selinger 2001-2011
</metadata>
<g transform="translate(0.000000,64.000000) scale(0.100000,-0.100000)"
fill="#000000" stroke="none">
<path d="M123 605 c3 -18 -1 -29 -14 -36 -22 -11 -25 -39 -7 -57 9 -9 9 -12 0
-12 -7 0 -12 -8 -12 -18 0 -10 5 -23 12 -30 9 -9 9 -12 0 -12 -18 0 -14 -38 5
-48 15 -9 13 -13 -16 -38 -48 -40 -81 -116 -81 -187 0 -108 46 -157 146 -157
61 0 66 2 104 40 40 40 44 52 40 130 -2 58 -20 99 -66 156 -41 51 -55 84 -35
84 14 0 23 32 12 43 -6 6 -5 16 2 28 9 14 9 21 0 30 -9 9 -9 16 0 30 9 14 8
22 -6 37 -9 10 -17 24 -17 30 0 7 -15 12 -36 12 -33 0 -36 -2 -31 -25z m67
-37 c-1 -17 -67 -50 -75 -38 -3 5 11 18 32 29 46 24 43 24 43 9z m0 -62 c0
-16 -53 -40 -72 -33 -8 3 -3 9 14 15 14 6 29 16 33 21 9 16 25 14 25 -3z m0
-56 c0 -10 -52 -40 -70 -40 -29 0 5 25 68 49 1 1 2 -3 2 -9z m-24 -68 c-4 -12
5 -26 28 -44 45 -36 86 -120 86 -176 0 -75 -58 -132 -136 -132 -29 0 -44 8
-76 40 -39 39 -40 42 -36 98 5 73 41 147 84 175 19 12 34 30 34 40 0 9 5 17
11 17 6 0 8 -8 5 -18z"/>
<path d="M118 315 c-35 -19 -68 -90 -68 -147 0 -54 33 -94 85 -104 59 -11 125
40 125 96 0 47 -31 119 -62 145 -34 29 -43 30 -80 10z m90 -65 c12 -24 22 -60
22 -79 0 -74 -83 -109 -135 -56 -29 28 -31 60 -10 112 37 88 85 97 123 23z"/>
</g>
</svg>
